<mxfile host="app.diagrams.net" modified="2024-05-28T17:15:04.076Z" agent="Mozilla/5.0 (X11; Linux x86_64; rv:126.0) Gecko/20100101 Firefox/126.0" etag="VDLgQrOjJ3SaJiizxxk-" version="24.4.8" type="device">
  <diagram name="Page-1" id="0gJbcg0XPNFQ-sTSEnto">
    <mxGraphModel dx="1689" dy="444" grid="1" gridSize="10" guides="1" tooltips="1" connect="1" arrows="1" fold="1" page="1" pageScale="1" pageWidth="850" pageHeight="1100" math="0" shadow="0">
      <root>
        <mxCell id="0" />
        <mxCell id="1" parent="0" />
        <mxCell id="5U8ytU4bZrLR5_oLVIPA-13" value="&lt;div&gt;Incoming&lt;/div&gt;&lt;div&gt;Packets&lt;br&gt;&lt;/div&gt;" style="edgeStyle=orthogonalEdgeStyle;rounded=0;orthogonalLoop=1;jettySize=auto;html=1;startArrow=classic;startFill=1;fontStyle=1;fontSize=12;verticalAlign=bottom;endArrow=none;endFill=0;labelPosition=center;verticalLabelPosition=top;align=center;" edge="1" parent="1" source="5U8ytU4bZrLR5_oLVIPA-4">
          <mxGeometry x="0.4867" relative="1" as="geometry">
            <mxPoint x="441.5" y="250.5" as="targetPoint" />
            <mxPoint as="offset" />
          </mxGeometry>
        </mxCell>
        <mxCell id="5U8ytU4bZrLR5_oLVIPA-64" value="&lt;div&gt;Error on writing&lt;/div&gt;&lt;div&gt;(Network unreachable)&lt;br&gt;&lt;/div&gt;" style="edgeStyle=orthogonalEdgeStyle;rounded=0;orthogonalLoop=1;jettySize=auto;html=1;labelPosition=right;verticalLabelPosition=middle;align=left;verticalAlign=middle;" edge="1" parent="1" source="5U8ytU4bZrLR5_oLVIPA-4" target="5U8ytU4bZrLR5_oLVIPA-47">
          <mxGeometry relative="1" as="geometry">
            <Array as="points">
              <mxPoint x="299.5" y="140" />
            </Array>
          </mxGeometry>
        </mxCell>
        <mxCell id="5U8ytU4bZrLR5_oLVIPA-4" value="Handle&lt;br&gt;&lt;div&gt;Interface(s)&lt;/div&gt;&lt;div&gt;(read, write)&lt;br&gt;&lt;/div&gt;" style="rounded=0;whiteSpace=wrap;html=1;fillColor=#f5f5f5;fontColor=#333333;strokeColor=#666666;" vertex="1" parent="1">
          <mxGeometry x="267.5" y="220.5" width="120" height="60" as="geometry" />
        </mxCell>
        <mxCell id="5U8ytU4bZrLR5_oLVIPA-20" value="1" style="ellipse;whiteSpace=wrap;html=1;aspect=fixed;fontSize=12;fontStyle=1;fillColor=#ffe6cc;strokeColor=#d79b00;" vertex="1" parent="1">
          <mxGeometry x="387.5" y="183.75" width="30" height="30" as="geometry" />
        </mxCell>
        <mxCell id="5U8ytU4bZrLR5_oLVIPA-21" value="QUICHEPERF" style="text;html=1;align=center;verticalAlign=middle;resizable=0;points=[];autosize=1;strokeColor=#666666;fillColor=#f5f5f5;fontStyle=1;fontColor=#333333;" vertex="1" parent="1">
          <mxGeometry x="5" y="50" width="100" height="30" as="geometry" />
        </mxCell>
        <mxCell id="5U8ytU4bZrLR5_oLVIPA-26" value="STUN" style="edgeStyle=orthogonalEdgeStyle;rounded=0;orthogonalLoop=1;jettySize=auto;html=1;verticalAlign=bottom;horizontal=1;fontSize=12;" edge="1" parent="1" source="5U8ytU4bZrLR5_oLVIPA-38" target="5U8ytU4bZrLR5_oLVIPA-24">
          <mxGeometry x="0.0909" relative="1" as="geometry">
            <mxPoint x="117.49999999999977" y="267" as="targetPoint" />
            <Array as="points">
              <mxPoint x="92.5" y="290" />
            </Array>
            <mxPoint as="offset" />
          </mxGeometry>
        </mxCell>
        <mxCell id="5U8ytU4bZrLR5_oLVIPA-29" value="QUIC" style="edgeStyle=orthogonalEdgeStyle;rounded=0;orthogonalLoop=1;jettySize=auto;html=1;fontSize=12;verticalAlign=bottom;" edge="1" parent="1" source="5U8ytU4bZrLR5_oLVIPA-38" target="5U8ytU4bZrLR5_oLVIPA-28">
          <mxGeometry x="-0.1993" relative="1" as="geometry">
            <mxPoint x="-2.5" y="260" as="targetPoint" />
            <Array as="points">
              <mxPoint x="92.5" y="216" />
            </Array>
            <mxPoint as="offset" />
          </mxGeometry>
        </mxCell>
        <mxCell id="5U8ytU4bZrLR5_oLVIPA-22" value="&lt;div&gt;De-multiplex&lt;/div&gt;&lt;div&gt;ingress packets&lt;br&gt;&lt;/div&gt;" style="rounded=0;whiteSpace=wrap;html=1;fillColor=#f5f5f5;fontColor=#333333;strokeColor=#666666;" vertex="1" parent="1">
          <mxGeometry x="147.5" y="220.5" width="120" height="60" as="geometry" />
        </mxCell>
        <mxCell id="5U8ytU4bZrLR5_oLVIPA-23" value="2" style="ellipse;whiteSpace=wrap;html=1;aspect=fixed;fontSize=12;fontStyle=1;fillColor=#ffe6cc;strokeColor=#d79b00;" vertex="1" parent="1">
          <mxGeometry x="232.5" y="186.5" width="30" height="30" as="geometry" />
        </mxCell>
        <mxCell id="5U8ytU4bZrLR5_oLVIPA-66" style="edgeStyle=orthogonalEdgeStyle;rounded=0;orthogonalLoop=1;jettySize=auto;html=1;" edge="1" parent="1" source="5U8ytU4bZrLR5_oLVIPA-24" target="5U8ytU4bZrLR5_oLVIPA-4">
          <mxGeometry relative="1" as="geometry">
            <Array as="points">
              <mxPoint x="-42.5" y="340" />
              <mxPoint x="309.5" y="340" />
            </Array>
          </mxGeometry>
        </mxCell>
        <mxCell id="5U8ytU4bZrLR5_oLVIPA-67" value="Binding from ICE" style="edgeStyle=orthogonalEdgeStyle;rounded=0;orthogonalLoop=1;jettySize=auto;html=1;dashed=1;" edge="1" parent="1" source="5U8ytU4bZrLR5_oLVIPA-24" target="5U8ytU4bZrLR5_oLVIPA-51">
          <mxGeometry relative="1" as="geometry">
            <Array as="points">
              <mxPoint x="-20.5" y="390" />
            </Array>
          </mxGeometry>
        </mxCell>
        <mxCell id="5U8ytU4bZrLR5_oLVIPA-24" value="ICE Agent" style="rounded=0;whiteSpace=wrap;html=1;fillColor=#647687;fontColor=#ffffff;strokeColor=#314354;" vertex="1" parent="1">
          <mxGeometry x="-102.5" y="260" width="120" height="60" as="geometry" />
        </mxCell>
        <mxCell id="5U8ytU4bZrLR5_oLVIPA-70" style="edgeStyle=orthogonalEdgeStyle;rounded=0;orthogonalLoop=1;jettySize=auto;html=1;" edge="1" parent="1" source="5U8ytU4bZrLR5_oLVIPA-28" target="5U8ytU4bZrLR5_oLVIPA-4">
          <mxGeometry relative="1" as="geometry">
            <Array as="points">
              <mxPoint x="-120.5" y="216" />
              <mxPoint x="-120.5" y="340" />
              <mxPoint x="309.5" y="340" />
            </Array>
          </mxGeometry>
        </mxCell>
        <mxCell id="5U8ytU4bZrLR5_oLVIPA-28" value="QUIC" style="rounded=0;whiteSpace=wrap;html=1;fillColor=#A9C4EB;fontColor=#333333;strokeColor=#666666;" vertex="1" parent="1">
          <mxGeometry x="-102.5" y="185.75" width="120" height="60" as="geometry" />
        </mxCell>
        <mxCell id="5U8ytU4bZrLR5_oLVIPA-33" value="6" style="ellipse;whiteSpace=wrap;html=1;aspect=fixed;fontSize=12;fontStyle=1;fillColor=#ffe6cc;strokeColor=#d79b00;" vertex="1" parent="1">
          <mxGeometry x="-75.5" y="323" width="30" height="30" as="geometry" />
        </mxCell>
        <mxCell id="5U8ytU4bZrLR5_oLVIPA-39" value="" style="edgeStyle=orthogonalEdgeStyle;rounded=0;orthogonalLoop=1;jettySize=auto;html=1;" edge="1" parent="1" source="5U8ytU4bZrLR5_oLVIPA-22" target="5U8ytU4bZrLR5_oLVIPA-38">
          <mxGeometry relative="1" as="geometry">
            <mxPoint x="147.5" y="250.5" as="sourcePoint" />
            <mxPoint x="147.5" y="516.5" as="targetPoint" />
            <Array as="points" />
          </mxGeometry>
        </mxCell>
        <mxCell id="5U8ytU4bZrLR5_oLVIPA-38" value="Type" style="rhombus;whiteSpace=wrap;html=1;" vertex="1" parent="1">
          <mxGeometry x="67.5" y="224" width="50" height="53" as="geometry" />
        </mxCell>
        <mxCell id="5U8ytU4bZrLR5_oLVIPA-71" style="edgeStyle=orthogonalEdgeStyle;rounded=0;orthogonalLoop=1;jettySize=auto;html=1;" edge="1" parent="1" source="5U8ytU4bZrLR5_oLVIPA-47" target="5U8ytU4bZrLR5_oLVIPA-28">
          <mxGeometry relative="1" as="geometry" />
        </mxCell>
        <mxCell id="5U8ytU4bZrLR5_oLVIPA-47" value="&lt;div&gt;Remove path&lt;/div&gt;&lt;div&gt;from QUIC&lt;br&gt;&lt;/div&gt;" style="whiteSpace=wrap;html=1;fillColor=#f5f5f5;fontColor=#333333;strokeColor=#666666;" vertex="1" parent="1">
          <mxGeometry x="147.5" y="100" width="120" height="60" as="geometry" />
        </mxCell>
        <mxCell id="5U8ytU4bZrLR5_oLVIPA-69" style="edgeStyle=orthogonalEdgeStyle;rounded=0;orthogonalLoop=1;jettySize=auto;html=1;" edge="1" parent="1" source="5U8ytU4bZrLR5_oLVIPA-51" target="5U8ytU4bZrLR5_oLVIPA-4">
          <mxGeometry relative="1" as="geometry">
            <Array as="points">
              <mxPoint x="339.5" y="380" />
            </Array>
          </mxGeometry>
        </mxCell>
        <mxCell id="5U8ytU4bZrLR5_oLVIPA-51" value="&lt;div&gt;Add new&lt;/div&gt;&lt;div&gt;socket&lt;br&gt;&lt;/div&gt;" style="whiteSpace=wrap;html=1;fillColor=#f5f5f5;fontColor=#333333;strokeColor=#666666;" vertex="1" parent="1">
          <mxGeometry x="147.5" y="360" width="120" height="60" as="geometry" />
        </mxCell>
        <mxCell id="5U8ytU4bZrLR5_oLVIPA-55" value="4" style="ellipse;whiteSpace=wrap;html=1;aspect=fixed;fontSize=12;fontStyle=1;fillColor=#ffe6cc;strokeColor=#d79b00;" vertex="1" parent="1">
          <mxGeometry x="97.5" y="275" width="30" height="30" as="geometry" />
        </mxCell>
        <mxCell id="5U8ytU4bZrLR5_oLVIPA-57" value="3" style="ellipse;whiteSpace=wrap;html=1;aspect=fixed;fontSize=12;fontStyle=1;fillColor=#ffe6cc;strokeColor=#d79b00;" vertex="1" parent="1">
          <mxGeometry x="97.5" y="194" width="30" height="30" as="geometry" />
        </mxCell>
        <mxCell id="5U8ytU4bZrLR5_oLVIPA-58" value="7" style="ellipse;whiteSpace=wrap;html=1;aspect=fixed;fontSize=12;fontStyle=1;fillColor=#ffe6cc;strokeColor=#d79b00;" vertex="1" parent="1">
          <mxGeometry x="105" y="353" width="30" height="30" as="geometry" />
        </mxCell>
        <mxCell id="5U8ytU4bZrLR5_oLVIPA-59" value="5" style="ellipse;whiteSpace=wrap;html=1;aspect=fixed;fontSize=12;fontStyle=1;fillColor=#ffe6cc;strokeColor=#d79b00;" vertex="1" parent="1">
          <mxGeometry x="-141.5" y="183.75" width="30" height="30" as="geometry" />
        </mxCell>
        <mxCell id="5U8ytU4bZrLR5_oLVIPA-62" value="QUIC" style="text;html=1;align=center;verticalAlign=middle;resizable=0;points=[];autosize=1;strokeColor=#666666;fillColor=#A9C4EB;fontStyle=1;fontColor=#333333;" vertex="1" parent="1">
          <mxGeometry x="125" y="50" width="50" height="30" as="geometry" />
        </mxCell>
        <mxCell id="5U8ytU4bZrLR5_oLVIPA-63" value="ICE AGENT" style="text;html=1;align=center;verticalAlign=middle;resizable=0;points=[];autosize=1;strokeColor=#314354;fillColor=#647687;fontStyle=1;fontColor=#ffffff;" vertex="1" parent="1">
          <mxGeometry x="190" y="50" width="90" height="30" as="geometry" />
        </mxCell>
        <mxCell id="5U8ytU4bZrLR5_oLVIPA-65" value="8" style="ellipse;whiteSpace=wrap;html=1;aspect=fixed;fontSize=12;fontStyle=1;fillColor=#ffe6cc;strokeColor=#d79b00;" vertex="1" parent="1">
          <mxGeometry x="270.5" y="382" width="30" height="30" as="geometry" />
        </mxCell>
        <mxCell id="5U8ytU4bZrLR5_oLVIPA-72" value="9" style="ellipse;whiteSpace=wrap;html=1;aspect=fixed;fontSize=12;fontStyle=1;fillColor=#ffe6cc;strokeColor=#d79b00;" vertex="1" parent="1">
          <mxGeometry x="270.5" y="100" width="30" height="30" as="geometry" />
        </mxCell>
        <mxCell id="5U8ytU4bZrLR5_oLVIPA-73" value="10" style="ellipse;whiteSpace=wrap;html=1;aspect=fixed;fontSize=12;fontStyle=1;fillColor=#ffe6cc;strokeColor=#d79b00;" vertex="1" parent="1">
          <mxGeometry x="113.5" y="132" width="30" height="30" as="geometry" />
        </mxCell>
      </root>
    </mxGraphModel>
  </diagram>
</mxfile>
